<svg width="16" height="16" viewBox="0 0 16 16" fill="none" xmlns="http://www.w3.org/2000/svg">
<path d="M10 10.6664V9.33306C10.3 9.18438 11.158 8.16301 11.248 7.36497C11.484 7.34697 11.8547 7.1303 11.964 6.27493C12.0227 5.81558 11.7893 5.55756 11.648 5.47623C11.648 5.47623 12 4.80753 12 4.00017C12 2.38143 11.3647 1.00004 10 1.00004C10 1.00004 9.526 0 8 0C5.172 0 4 1.81408 4 4.00017C4 4.7362 4.352 5.47623 4.352 5.47623C4.21067 5.55756 3.97733 5.81624 4.036 6.27493C4.14533 7.1303 4.516 7.34697 4.752 7.36497C4.842 8.16301 5.7 9.18438 6 9.33306V10.6664C5.33333 12.6665 0 11.3331 0 16H16C16 11.3331 10.6667 12.6665 10 10.6664Z" fill="#C8C7CC"/>
</svg>
