<svg width="13" height="16" viewBox="0 0 13 16" fill="none" xmlns="http://www.w3.org/2000/svg">
<path fill-rule="evenodd" clip-rule="evenodd" d="M0 6.52021C0 2.91928 2.91023 0 6.5 0C10.0898 0 13 2.91928 13 6.52021C13 10.1768 9.92674 12.2079 8.69339 13.023C8.48043 13.1637 8.32232 13.2682 8.24436 13.3386C7.70368 13.827 7.25695 14.92 7.07673 15.54C6.98927 15.8406 6.74405 15.9929 6.5 16C6.25655 15.9935 6.01073 15.8411 5.92327 15.54C5.74305 14.92 5.29632 13.8264 4.75564 13.3386C4.67768 13.2682 4.51957 13.1637 4.30661 13.023C3.07326 12.2079 0 10.1768 0 6.52021ZM4.72727 6.52021C4.72727 7.50239 5.52086 8.29845 6.5 8.29845C7.47914 8.29845 8.27273 7.50239 8.27273 6.52021C8.27273 5.53803 7.47914 4.74197 6.5 4.74197C5.52086 4.74197 4.72727 5.53803 4.72727 6.52021Z" fill="#C8C7CC"/>
</svg>
