<svg width="12" height="7" viewBox="0 0 12 7" fill="none" xmlns="http://www.w3.org/2000/svg">
<path d="M0.271368 0.893038L0.271467 0.892958L1.09239 0.226772C1.42491 -0.0430777 1.96414 -0.0429724 2.2929 0.226691L2.293 0.226772L5.79462 3.06838L5.81 3.08086L5.82538 3.06838L9.327 0.226772C9.65953 -0.0430777 10.1988 -0.0429724 10.5275 0.226691L10.5276 0.226772L11.3485 0.892958C11.5141 1.02732 11.5956 1.20188 11.5956 1.37475C11.5956 1.5476 11.5141 1.72137 11.3486 1.85424L11.3485 1.85432L6.40849 5.86323L6.40829 5.86339C6.08324 6.13291 5.54409 6.13312 5.21151 5.86323L0.271467 1.85432C0.105897 1.71996 0.0244141 1.5454 0.0244141 1.37253C0.0244141 1.19968 0.10588 1.0259 0.271368 0.893038Z" fill="#C8C7CC" stroke="#C8C7CC" stroke-width="0.0488281"/>
</svg>
