<svg width="40" height="40" viewBox="0 0 40 40" fill="none" xmlns="http://www.w3.org/2000/svg">
<path d="M33.333 3.33334H16.6663C14.828 3.33334 13.333 4.82834 13.333 6.66667V13.3333H6.66634C4.82801 13.3333 3.33301 14.8283 3.33301 16.6667V33.3333C3.33301 35.1717 4.82801 36.6667 6.66634 36.6667H23.333C25.1713 36.6667 26.6663 35.1717 26.6663 33.3333V26.6667H33.333C35.1713 26.6667 36.6663 25.1717 36.6663 23.3333V6.66667C36.6663 4.82834 35.1713 3.33334 33.333 3.33334ZM6.66634 33.3333V16.6667H23.333L23.3363 33.3333H6.66634ZM33.333 23.3333H26.6663V16.6667C26.6663 14.8283 25.1713 13.3333 23.333 13.3333H16.6663V6.66667H33.333V23.3333Z" fill="white"/>
</svg>
